<?xml version="1.0" encoding="utf-8"?>
<!-- Generator: Adobe Illustrator 27.5.0, SVG Export Plug-In . SVG Version: 6.00 Build 0)  -->
<svg version="1.0" id="レイヤー_1" xmlns="http://www.w3.org/2000/svg" xmlns:xlink="http://www.w3.org/1999/xlink" x="0px"
	 y="0px" viewBox="0 0 779.53 260.29" style="enable-background:new 0 0 779.53 260.29;" xml:space="preserve">
<style type="text/css">
	.st0{fill:#9FA0A0;}
	.st1{fill:#E83828;}
	.st2{fill:#8FC31F;}
	.st3{fill:#F8B62D;}
	.st4{fill:#22AC38;}
	.st5{fill:#2EA7E0;}
	.st6{fill:#FAEE00;}
</style>
<g>
	<polygon class="st0" points="779.53,49.61 722.83,14.17 56.69,14.17 0,49.61 	"/>
	<polygon points="666.14,49.61 666.14,35.43 651.97,35.43 651.97,42.52 608.77,11.66 608.72,0 595.28,0 595.28,12.15 552.76,42.52 
		552.76,35.43 538.58,35.43 538.58,49.61 425.2,49.61 425.2,35.43 411.02,35.43 411.02,49.61 368.5,49.61 368.5,35.43 354.33,35.43 
		354.33,49.61 240.94,49.61 240.94,35.43 226.77,35.43 226.77,42.52 183.57,11.66 183.53,0 170.08,0 170.08,12.15 127.56,42.52 
		127.56,35.43 113.39,35.43 113.39,49.61 0,49.61 0,191.34 113.39,191.34 127.56,191.34 170.08,191.34 184.25,191.34 226.77,191.34 
		240.94,191.34 354.33,191.34 368.5,191.34 411.02,191.34 425.2,191.34 538.58,191.34 552.76,191.34 595.28,191.34 609.45,191.34 
		651.97,191.34 666.14,191.34 779.53,191.34 779.53,49.61 	"/>
	<g>
		<rect x="139.71" y="63.78" class="st0" width="9.11" height="21.26"/>
		<rect x="153.88" y="63.78" class="st0" width="9.11" height="21.26"/>
		<rect x="153.88" y="92.13" class="st0" width="9.11" height="14.17"/>
		<rect x="139.71" y="92.13" class="st0" width="9.11" height="14.17"/>
		<rect x="153.88" y="127.56" class="st1" width="9.11" height="14.17"/>
		<rect x="139.71" y="127.56" class="st0" width="9.11" height="14.17"/>
		<rect x="153.88" y="162.99" class="st0" width="9.11" height="21.26"/>
		<rect x="139.71" y="162.99" class="st0" width="9.11" height="21.26"/>
	</g>
	<g>
		<rect x="191.34" y="63.78" class="st0" width="9.11" height="21.26"/>
		<rect x="205.51" y="63.78" class="st0" width="9.11" height="21.26"/>
		<rect x="205.51" y="92.13" class="st0" width="9.11" height="14.17"/>
		<rect x="191.34" y="92.13" class="st2" width="9.11" height="14.17"/>
		<rect x="205.51" y="127.56" class="st0" width="9.11" height="14.17"/>
		<rect x="191.34" y="127.56" class="st0" width="9.11" height="14.17"/>
		<rect x="205.51" y="162.99" class="st0" width="9.11" height="21.26"/>
		<rect x="191.34" y="162.99" class="st0" width="9.11" height="21.26"/>
	</g>
	<rect x="260.28" y="162.99" class="st0" width="23.18" height="28.35"/>
	<rect x="260.18" y="120.47" class="st0" width="9.11" height="21.26"/>
	<rect x="260.18" y="85.04" class="st0" width="9.11" height="21.26"/>
	<rect x="274.35" y="120.47" class="st0" width="9.11" height="21.26"/>
	<rect x="274.35" y="85.04" class="st3" width="9.11" height="21.26"/>
	<rect x="311.81" y="162.99" class="st0" width="9.11" height="21.26"/>
	<rect x="311.81" y="120.47" class="st4" width="9.11" height="21.26"/>
	<rect x="311.81" y="85.04" class="st0" width="9.11" height="21.26"/>
	<rect x="325.98" y="162.99" class="st5" width="9.11" height="21.26"/>
	<rect x="325.98" y="120.47" class="st0" width="9.11" height="21.26"/>
	<rect x="325.98" y="85.04" class="st0" width="9.11" height="21.26"/>
	<g>
		<rect x="564.9" y="63.78" class="st0" width="9.11" height="21.26"/>
		<rect x="579.08" y="63.78" class="st5" width="9.11" height="21.26"/>
		<rect x="579.08" y="92.13" class="st0" width="9.11" height="14.17"/>
		<rect x="564.9" y="92.13" class="st0" width="9.11" height="14.17"/>
		<rect x="579.08" y="127.56" class="st0" width="9.11" height="14.17"/>
		<rect x="564.9" y="127.56" class="st0" width="9.11" height="14.17"/>
		<rect x="579.08" y="162.99" class="st0" width="9.11" height="21.26"/>
		<rect x="564.9" y="162.99" class="st0" width="9.11" height="21.26"/>
	</g>
	<g>
		<rect x="616.54" y="63.78" class="st0" width="9.11" height="21.26"/>
		<rect x="630.71" y="63.78" class="st0" width="9.11" height="21.26"/>
		<rect x="630.71" y="92.13" class="st0" width="9.11" height="14.17"/>
		<rect x="616.54" y="92.13" class="st0" width="9.11" height="14.17"/>
		<rect x="630.71" y="127.56" class="st0" width="9.11" height="14.17"/>
		<rect x="616.54" y="127.56" class="st0" width="9.11" height="14.17"/>
		<rect x="630.71" y="162.99" class="st6" width="9.11" height="21.26"/>
		<rect x="616.54" y="162.99" class="st0" width="9.11" height="21.26"/>
	</g>
	<rect x="685.48" y="162.99" class="st0" width="23.18" height="28.35"/>
	<rect x="685.37" y="120.47" class="st0" width="9.11" height="21.26"/>
	<rect x="685.37" y="85.04" class="st0" width="9.11" height="21.26"/>
	<rect x="699.55" y="120.47" class="st0" width="9.11" height="21.26"/>
	<rect x="699.55" y="85.04" class="st0" width="9.11" height="21.26"/>
	<rect x="737.01" y="162.99" class="st0" width="9.11" height="21.26"/>
	<rect x="737.01" y="120.47" class="st0" width="9.11" height="21.26"/>
	<rect x="737.01" y="85.04" class="st1" width="9.11" height="21.26"/>
	<rect x="751.18" y="162.99" class="st0" width="9.11" height="21.26"/>
	<rect x="751.18" y="120.47" class="st0" width="9.11" height="21.26"/>
	<rect x="751.18" y="85.04" class="st0" width="9.11" height="21.26"/>
	<rect x="70.87" y="162.99" class="st0" width="23.18" height="28.35"/>
	<rect x="85.04" y="120.47" class="st5" width="9.11" height="21.26"/>
	<rect x="85.04" y="85.04" class="st0" width="9.11" height="21.26"/>
	<rect x="70.87" y="120.47" class="st0" width="9.11" height="21.26"/>
	<rect x="70.87" y="85.04" class="st0" width="9.11" height="21.26"/>
	<rect x="33.41" y="162.99" class="st0" width="9.11" height="21.26"/>
	<rect x="33.41" y="120.47" class="st0" width="9.11" height="21.26"/>
	<rect x="33.41" y="85.04" class="st0" width="9.11" height="21.26"/>
	<rect x="19.23" y="162.99" class="st0" width="9.11" height="21.26"/>
	<rect x="19.23" y="120.47" class="st0" width="9.11" height="21.26"/>
	<rect x="19.23" y="85.04" class="st3" width="9.11" height="21.26"/>
	<rect x="496.06" y="162.99" class="st0" width="23.18" height="28.35"/>
	<rect x="510.24" y="120.47" class="st0" width="9.11" height="21.26"/>
	<rect x="510.24" y="85.04" class="st0" width="9.11" height="21.26"/>
	<rect x="496.06" y="120.47" class="st0" width="9.11" height="21.26"/>
	<rect x="496.06" y="85.04" class="st2" width="9.11" height="21.26"/>
	<rect x="458.6" y="162.99" class="st3" width="9.11" height="21.26"/>
	<rect x="458.6" y="120.47" class="st0" width="9.11" height="21.26"/>
	<rect x="458.6" y="85.04" class="st0" width="9.11" height="21.26"/>
	<rect x="444.43" y="162.99" class="st0" width="9.11" height="21.26"/>
	<rect x="444.43" y="120.47" class="st0" width="9.11" height="21.26"/>
	<rect x="444.43" y="85.04" class="st0" width="9.11" height="21.26"/>
	<g>
		<rect x="378.23" y="162.99" class="st0" width="23.18" height="28.35"/>
		<rect x="378.12" y="120.47" class="st0" width="9.11" height="21.26"/>
		<rect x="378.12" y="92.13" class="st0" width="9.11" height="21.26"/>
		<rect x="392.29" y="120.47" class="st0" width="9.11" height="21.26"/>
		<rect x="392.29" y="92.13" class="st1" width="9.11" height="21.26"/>
	</g>
	<g>
		<path d="M30.61,205.57v7.81H13.74v8.49h15.73v7.35H13.74v10.15h16.87v7.81H4.05v-41.62H30.61z"/>
		<path d="M64.24,215.43c-3.93-2-7.92-2.96-11.97-2.96c-3.48,0-5.25,1.37-5.25,4.1c0,2.34,1.54,4.05,4.56,4.96
			c5.25,1.65,8.89,3.48,10.89,5.59c2.05,2.11,3.08,4.9,3.08,8.38c0,8.15-5.13,12.26-15.45,12.26c-4.39,0-8.32-0.97-11.8-2.96v-8.27
			c3.59,2.45,7.3,3.65,11.23,3.65c4.05,0,6.16-1.6,6.16-4.5c0-2.51-1.25-3.99-4.85-5.13c-9.58-3.02-13.57-7.41-13.57-13.97
			c0-7.13,5.13-11.57,14.42-11.57c4.85,0,9.01,0.74,12.54,2.28V215.43z"/>
		<path d="M70.22,237.43c3.53,1.65,7.01,2.51,10.43,2.51c4.62,0,6.78-2.51,6.78-9.29v-25.08h9.98v26.39
			c0,11.23-4.62,15.79-15.39,15.79c-4.33,0-8.27-0.63-11.8-1.88V237.43z"/>
		<path d="M125.23,213.38h-20.07v-7.81h29.25v7.81c-3.19,5.3-5.93,10.55-8.27,15.73c-2.34,5.19-4.62,11.17-6.9,18.07h-10.38
			c4.5-12.31,9.98-23.49,16.36-33.58V213.38z"/>
		<path d="M143.75,224.21v-10.66l11-7.98h10.09v41.62h-10.09v-30.95h-0.06L143.75,224.21z"/>
		<path d="M193.29,214.86v10.83h-10.83v-10.83H193.29z M193.29,236.35v10.83h-10.83v-10.83H193.29z"/>
		<path d="M215.17,231.22l-13.51-25.65h11.06l7.52,17.84h0.11l7.52-17.84h10.83l-13.57,25.65v15.96h-9.98V231.22z"/>
		<path d="M261.17,247.75c-5.99,0-10.77-1.88-14.25-5.64c-3.48-3.82-5.24-9.06-5.24-15.73s1.77-11.91,5.24-15.68
			c3.48-3.82,8.27-5.7,14.25-5.7s10.77,1.88,14.25,5.7c3.48,3.76,5.24,9.01,5.24,15.68s-1.77,11.91-5.24,15.73
			C271.95,245.87,267.16,247.75,261.17,247.75z M261.17,212.98c-6.38,0-9.58,4.45-9.58,13.4s3.19,13.4,9.58,13.4
			s9.58-4.45,9.58-13.4S267.56,212.98,261.17,212.98z"/>
		<path d="M286.76,247.18v-41.62h9.69v17.84h0.11l11.52-17.84h11.17l-13.68,19.95l14.25,21.66h-11.17l-12.09-19.55h-0.11v19.55
			H286.76z"/>
		<path d="M342.57,247.75c-5.99,0-10.77-1.88-14.25-5.64c-3.48-3.82-5.24-9.06-5.24-15.73s1.77-11.91,5.24-15.68
			c3.48-3.82,8.27-5.7,14.25-5.7s10.77,1.88,14.25,5.7c3.48,3.76,5.24,9.01,5.24,15.68s-1.77,11.91-5.24,15.73
			C353.34,245.87,348.55,247.75,342.57,247.75z M342.57,212.98c-6.38,0-9.58,4.45-9.58,13.4s3.19,13.4,9.58,13.4
			s9.58-4.45,9.58-13.4S348.95,212.98,342.57,212.98z"/>
		<path d="M400.31,247.18h-9.69v-17.96h-12.77v17.96h-9.69v-41.62h9.69v16.3h12.77v-16.3h9.69V247.18z"/>
		<path d="M418.21,238.17l-2.28,9.01h-10.09l13.51-41.62h10.26l13.51,41.62H432.8l-2.28-9.01H418.21z M424.42,213.95h-0.11
			l-4.28,16.87h8.67L424.42,213.95z"/>
		<path d="M488.55,247.18h-9.18V221.7h-0.11l-6.78,15.96h-7.98l-6.78-15.96h-0.11v25.48h-8.95v-41.62h9.75l10.03,24.51h0.11
			l10.03-24.51h9.98V247.18z"/>
		<path d="M506.44,238.17l-2.28,9.01h-10.09l13.51-41.62h10.26l13.51,41.62h-10.32l-2.28-9.01H506.44z M512.65,213.95h-0.11
			l-4.28,16.87h8.67L512.65,213.95z"/>
		<path d="M534.03,249.46l19.84-43.9h8.44l-19.84,43.9H534.03z"/>
		<path d="M585.9,247.75c-5.99,0-10.77-1.88-14.25-5.64c-3.48-3.82-5.24-9.06-5.24-15.73s1.77-11.91,5.24-15.68
			c3.48-3.82,8.27-5.7,14.25-5.7c5.99,0,10.77,1.88,14.25,5.7c3.48,3.76,5.24,9.01,5.24,15.68s-1.77,11.91-5.24,15.73
			C596.67,245.87,591.88,247.75,585.9,247.75z M585.9,212.98c-6.38,0-9.58,4.45-9.58,13.4s3.19,13.4,9.58,13.4s9.58-4.45,9.58-13.4
			S592.28,212.98,585.9,212.98z"/>
		<path d="M620.78,221.64v25.54h-9.29v-41.62h9.29l13.45,25.54h0.11v-25.54h9.29v41.62h-9.29l-13.45-25.54H620.78z"/>
		<path d="M652.3,247.18v-41.62h9.98v33.58h17.62v8.04H652.3z"/>
		<path d="M698.59,205.57v41.62h-10.6v-41.62H698.59z"/>
		<path d="M717.4,221.64v25.54h-9.29v-41.62h9.29l13.45,25.54h0.11v-25.54h9.29v41.62h-9.29l-13.45-25.54H717.4z"/>
		<path d="M775.48,205.57v7.81h-16.87v8.49h15.73v7.35h-15.73v10.15h16.87v7.81h-26.56v-41.62H775.48z"/>
	</g>
</g>
</svg>
